<?xml version="1.0" encoding="UTF-8" standalone="no"?><svg version="1.1" width="700" height="300" xmlns="http://www.w3.org/2000/svg" xmlns:xlink="http://www.w3.org/1999/xlink"><defs><linearGradient id="e3" x1="0" x2="0" y1="0" y2="100%"><stop offset="0%" stop-color="white"/><stop offset="100%" stop-color="yellow"/></linearGradient><linearGradient id="e5" x1="0" x2="0" y1="0" y2="100%"><stop offset="0%" stop-color="white"/><stop offset="100%" stop-color="red"/></linearGradient></defs><rect width="100%" height="100%" fill="rgb(240,240,240)" stroke-width="1px" stroke="rgb(0,0,0)"/><g class="grid"><path d="M33 273h657M33 255.87h657M33 238.73h657M33 221.6h657M33 204.47h657M33 187.33h657M33 170.2h657M33 153.07h657M33 135.93h657M33 118.8h657M33 101.67h657M33 84.53h657M33 67.4h657M33 50.27h657M33 33.13h657M33 16h657M33 16v257M164.4 16v257M295.8 16v257M427.2 16v257M558.6 16v257M690 16v257" stroke="rgb(220,220,220)"/></g><rect x="38" width="121.4" y="63.12" height="209.88" stroke="rgb(0,0,0)" stroke-width="1px" fill="url(#e3)" id="e2"/><rect x="169.4" width="121.4" y="63.12" height="209.88" stroke="rgb(0,0,0)" stroke-width="1px" fill="url(#e5)" id="e4"/><rect x="300.8" width="121.4" y="82.82" height="190.18" stroke="rgb(0,0,0)" stroke-width="1px" fill="url(#e3)" id="e6"/><rect x="432.2" width="121.4" y="22" height="251" stroke="rgb(0,0,0)" stroke-width="1px" fill="url(#e5)" id="e7"/><rect x="563.6" width="121.4" y="57.12" height="215.88" stroke="rgb(0,0,0)" stroke-width="1px" fill="url(#e3)" id="e8"/><path d="M33 276v-3M164.4 276v-3M295.8 276v-3M427.2 276v-3M558.6 276v-3M690 276v-3" stroke="rgb(0,0,0)" fill="none"/><path stroke="rgb(0,0,0)" d="M28 273h667" stroke-width="2px"/><g font-family="Courier New" font-size="10px" fill="rgb(0,0,0)"><text x="98.7" y="286.3" text-anchor="middle">EG links</text><text x="230.1" y="286.3" text-anchor="middle">EG rechts</text><text x="361.5" y="286.3" text-anchor="middle">OG links</text><text x="492.9" y="286.3" text-anchor="middle">OG rechts</text><text x="624.3" y="286.3" text-anchor="middle">DG</text></g><path d="M30 273h3M30 255.87h3M30 238.73h3M30 221.6h3M30 204.47h3M30 187.33h3M30 170.2h3M30 153.07h3M30 135.93h3M30 118.8h3M30 101.67h3M30 84.53h3M30 67.4h3M30 50.27h3M30 33.13h3M30 16h3" stroke="rgb(0,0,0)" fill="none"/><path stroke="rgb(0,0,0)" d="M33 11v267" stroke-width="2px"/><g font-family="Courier New" font-size="10px" fill="rgb(0,0,0)"><text x="28" y="275.65" text-anchor="end">0</text><text x="28" y="258.52" text-anchor="end">20</text><text x="28" y="241.38" text-anchor="end">40</text><text x="28" y="224.25" text-anchor="end">60</text><text x="28" y="207.12" text-anchor="end">80</text><text x="28" y="189.98" text-anchor="end">100</text><text x="28" y="172.85" text-anchor="end">120</text><text x="28" y="155.72" text-anchor="end">140</text><text x="28" y="138.58" text-anchor="end">160</text><text x="28" y="121.45" text-anchor="end">180</text><text x="28" y="104.32" text-anchor="end">200</text><text x="28" y="87.18" text-anchor="end">220</text><text x="28" y="70.05" text-anchor="end">240</text><text x="28" y="52.92" text-anchor="end">260</text><text x="28" y="35.78" text-anchor="end">280</text><text x="28" y="18.65" text-anchor="end">300</text></g></svg>
